<?xml version="1.0" encoding="UTF-8" standalone="no"?>
<svg
   viewBox="0 0 95 95"
   version="1.1"
   id="svg257"
   sodipodi:docname="audio_books.svg"
   inkscape:version="1.2.2 (732a01da63, 2022-12-09, custom)"
   xmlns:inkscape="http://www.inkscape.org/namespaces/inkscape"
   xmlns:sodipodi="http://sodipodi.sourceforge.net/DTD/sodipodi-0.dtd"
   xmlns:xlink="http://www.w3.org/1999/xlink"
   xmlns="http://www.w3.org/2000/svg"
   xmlns:svg="http://www.w3.org/2000/svg">
  <sodipodi:namedview
     id="namedview455"
     pagecolor="#505050"
     bordercolor="#ffffff"
     borderopacity="1"
     inkscape:showpageshadow="0"
     inkscape:pageopacity="0"
     inkscape:pagecheckerboard="1"
     inkscape:deskcolor="#505050"
     showgrid="false"
     inkscape:zoom="8.9157895"
     inkscape:cx="47.724321"
     inkscape:cy="46.154073"
     inkscape:window-width="1873"
     inkscape:window-height="1025"
     inkscape:window-x="47"
     inkscape:window-y="27"
     inkscape:window-maximized="1"
     inkscape:current-layer="svg257" />
  <defs
     id="defs147">
    <linearGradient
       id="d">
      <stop
         stop-color="#fff"
         offset="0"
         id="stop135" />
      <stop
         stop-color="#fff"
         stop-opacity="0"
         offset="1"
         id="stop137" />
    </linearGradient>
    <linearGradient
       id="c"
       x2="0"
       y1="-26"
       y2="1.4211e-14"
       gradientUnits="userSpaceOnUse"
       xlink:href="#d" />
    <radialGradient
       id="b"
       cx="259"
       cy="484.36"
       r="41"
       gradientTransform="matrix(1.173 .33258 -.29937 1.0559 100.19 -113.22)"
       gradientUnits="userSpaceOnUse">
      <stop
         stop-color="#fff"
         stop-opacity="0"
         offset="0"
         id="stop141" />
      <stop
         stop-opacity=".33577"
         offset="1"
         id="stop143" />
    </radialGradient>
    <radialGradient
       id="a"
       cx="259.85"
       cy="485.57"
       r="13.5"
       gradientTransform="matrix(-.1624 .99376 -1.0061 -.044927 795.22 250.45)"
       gradientUnits="userSpaceOnUse"
       xlink:href="#d" />
  </defs>
  <path
     transform="translate(-201.5 -450.04)"
     d="m295 500.36a41 41 0 1 1 -82 0 41 41 0 1 1 82 0z"
     fill-opacity=".37849"
     id="path149" />
  <path
     transform="translate(-204.5 -452.04)"
     d="m295 500.36a41 41 0 1 1 -82 0 41 41 0 1 1 82 0z"
     fill-opacity=".37849"
     id="path151" />
  <path
     transform="translate(-206.5 -453.41)"
     d="m295 500.36a41 41 0 1 1 -82 0 41 41 0 1 1 82 0z"
     fill="#ffa500"
     id="path153" />
  <path
     transform="translate(-206.5 -453.41)"
     d="m295 500.36a41 41 0 1 1 -82 0 41 41 0 1 1 82 0z"
     fill="url(#b)"
     id="path155" />
  <path
     d="M 33.110907,31.408035 57.24342,26.184083 c 0,0 0.940034,-0.214627 1.420945,0.139336 0.546801,0.402106 0.497251,1.026218 0.497251,1.026218 l -0.102173,33.084798 -21.037431,7.157084 -4.010781,-3.17503 -0.900324,-33.008366 z"
     fill="url(#d)"
     id="path47"
     style="fill:#ffffff;stroke-width:0.0878536" />
  <path
     d="m 34.026078,32.584483 c 0.916138,0.130463 23.332167,-5.396848 23.332167,-5.396848 l 2.867542,1.483848 -23.452526,6.398379 -2.747534,-2.485379 z"
     fill="#feebd8"
     id="path49"
     style="fill:#666666;stroke-width:0.0878536" />
  <path
     d="m 33.110907,31.408035 4.577877,2.353423 0.09225,34.237439 -4.67311,-3.745113 z"
     fill="url(#c)"
     id="path51"
     style="fill:#ffffff;stroke-width:0.0878536" />
  <path
     d="m 37.688784,33.761283 22.421125,-5.39597 c 0,0 0.922638,-0.21366 1.517144,0.163144 0.516491,0.327606 0.513065,1.126898 0.513065,1.126898 l -0.03022,29.190248 c 0,0 0.04015,1.023231 -0.503313,1.681606 -0.52352,0.634654 -1.507041,0.932566 -1.507041,0.932566 l -22.318336,6.465324 -0.09225,-34.163641 z"
     fill="url(#b)"
     id="path53"
     style="fill:#ffffff;stroke-width:0.0878536" />
  <path
     d="m 59.086589,26.891129 c 0,0 -0.05956,-0.138721 -0.122907,-0.250295 -0.378298,-0.664876 -1.243831,-0.505686 -1.243831,-0.505686 l -23.203023,5.504909 1.73713,0.868609 1.526984,0.76336 21.483727,-5.137505 c 0,0 1.22301,-0.295979 1.778245,-0.0897 0.768895,0.285524 0.946008,0.922111 0.946008,0.922111 0,0 -0.03971,-0.08873 -0.07986,-0.14979 -0.477397,-0.724793 -1.688107,-0.464482 -1.688107,-0.464482 l -22.45978,5.57493 -4.650268,-2.519555 22.814709,-5.319537 c 0,0 0.815984,-0.177025 1.231005,-0.248889 1.507656,-0.261716 1.930496,1.05152 1.930496,1.05152 z"
     fill="url(#a)"
     id="path55"
     style="fill:#1a1a1a;stroke-width:0.0878536" />
  <path
     d="M 37.761175,33.927326 V 67.924924 L 37.465723,67.701776 V 33.790274 Z"
     fill="#fffdee"
     opacity="0.53"
     id="path57"
     style="fill:#000000;stroke-width:0.0878536" />
  <path
     d="M 36.238935,32.494785 57.743747,27.386887 36.431335,32.601878 Z"
     opacity="0.1"
     id="path59"
     style="fill:#666666;stroke-width:0.0878536" />
  <path
     d="m 36.699025,32.732692 21.504811,-5.10781 -21.312412,5.214904 z"
     opacity="0.1"
     id="path61"
     style="fill:#666666;stroke-width:0.0878536" />
  <path
     d="M 37.159114,32.954786 58.663926,27.846888 37.351514,33.062056 Z"
     opacity="0.1"
     id="path63"
     style="fill:#666666;stroke-width:0.0878536" />
  <path
     transform="matrix(-.04257 -1.133 1.9823 -.08904 -905.12 418.49)"
     d="m278 486.86a13.5 13.5 0 1 1 -27 0 13.5 13.5 0 1 1 27 0z"
     fill="url(#a)"
     opacity=".5"
     id="path157" />
  <path
     d="m16-13a27 13 0 1 1 -54 0 27 13 0 1 1 54 0z"
     fill="url(#c)"
     opacity=".81102"
     id="path159"
     transform="matrix(1.1482 0 0 1.5 60.13 47.957)" />
</svg>
