<?xml version="1.0" encoding="UTF-8" standalone="no"?>
<svg
   viewBox="0 0 95 95"
   version="1.1"
   id="svg257"
   sodipodi:docname="settings.svg"
   inkscape:version="1.2.2 (732a01da63, 2022-12-09, custom)"
   xmlns:inkscape="http://www.inkscape.org/namespaces/inkscape"
   xmlns:sodipodi="http://sodipodi.sourceforge.net/DTD/sodipodi-0.dtd"
   xmlns:xlink="http://www.w3.org/1999/xlink"
   xmlns="http://www.w3.org/2000/svg"
   xmlns:svg="http://www.w3.org/2000/svg">
  <sodipodi:namedview
     id="namedview2481"
     pagecolor="#505050"
     bordercolor="#ffffff"
     borderopacity="1"
     inkscape:showpageshadow="0"
     inkscape:pageopacity="0"
     inkscape:pagecheckerboard="1"
     inkscape:deskcolor="#505050"
     showgrid="false"
     inkscape:zoom="8.9157895"
     inkscape:cx="39.087957"
     inkscape:cy="51.874262"
     inkscape:window-width="1873"
     inkscape:window-height="1025"
     inkscape:window-x="47"
     inkscape:window-y="27"
     inkscape:window-maximized="1"
     inkscape:current-layer="svg257" />
  <defs
     id="defs147">
    <linearGradient
       id="d">
      <stop
         stop-color="#fff"
         offset="0"
         id="stop135" />
      <stop
         stop-color="#fff"
         stop-opacity="0"
         offset="1"
         id="stop137" />
    </linearGradient>
    <linearGradient
       id="c"
       x2="0"
       y1="-26"
       y2="1.4211e-14"
       gradientUnits="userSpaceOnUse"
       xlink:href="#d" />
    <radialGradient
       id="b"
       cx="259"
       cy="484.36"
       r="41"
       gradientTransform="matrix(1.173 .33258 -.29937 1.0559 100.19 -113.22)"
       gradientUnits="userSpaceOnUse">
      <stop
         stop-color="#fff"
         stop-opacity="0"
         offset="0"
         id="stop141" />
      <stop
         stop-opacity=".33577"
         offset="1"
         id="stop143" />
    </radialGradient>
    <radialGradient
       id="a"
       cx="259.85"
       cy="485.57"
       r="13.5"
       gradientTransform="matrix(-.1624 .99376 -1.0061 -.044927 795.22 250.45)"
       gradientUnits="userSpaceOnUse"
       xlink:href="#d" />
  </defs>
  <path
     transform="translate(-201.5 -450.04)"
     d="m295 500.36a41 41 0 1 1 -82 0 41 41 0 1 1 82 0z"
     fill-opacity=".37849"
     id="path149" />
  <path
     transform="translate(-204.5 -452.04)"
     d="m295 500.36a41 41 0 1 1 -82 0 41 41 0 1 1 82 0z"
     fill-opacity=".37849"
     id="path151" />
  <path
     transform="translate(-206.5 -453.41)"
     d="m295 500.36a41 41 0 1 1 -82 0 41 41 0 1 1 82 0z"
     fill="#444444"
     id="path153" />
  <path
     transform="translate(-206.5 -453.41)"
     d="m295 500.36a41 41 0 1 1 -82 0 41 41 0 1 1 82 0z"
     fill="url(#b)"
     id="path155" />
  <path
     transform="matrix(-.04257 -1.133 1.9823 -.08904 -905.12 418.49)"
     d="m278 486.86a13.5 13.5 0 1 1 -27 0 13.5 13.5 0 1 1 27 0z"
     fill="url(#a)"
     opacity=".5"
     id="path157" />
  <path
     transform="matrix(1.1482 0 0 1.5 60.13 47.957)"
     d="m16-13a27 13 0 1 1 -54 0 27 13 0 1 1 54 0z"
     fill="url(#c)"
     opacity=".81102"
     id="path159" />
  <path
     d="m 64.315479,48.499812 c 0.0063,-0.194093 0.153369,-0.424082 0.327093,-0.511063 l 3.527281,-1.766346 c 0.173616,-0.08699 0.290608,-0.314971 0.259886,-0.506823 l -0.813196,-3.747973 c -0.05204,-0.187145 -0.253297,-0.3504 -0.447031,-0.362995 L 63.158241,41.3452 c -0.193856,-0.01257 -0.424313,-0.164549 -0.512119,-0.337684 l -0.545428,-1.002941 c -0.09769,-0.16784 -0.09664,-0.44185 0.0024,-0.608864 l 2.025556,-3.415232 c 0.0991,-0.167021 0.07544,-0.423256 -0.05247,-0.569325 l -2.72926,-2.782932 c -0.143598,-0.130772 -0.40007,-0.160668 -0.569793,-0.06639 l -3.490206,1.936779 c -0.169844,0.09428 -0.444681,0.08898 -0.610875,-0.01154 l -0.943142,-0.535663 c -0.17149,-0.0911 -0.317559,-0.3245 -0.3245,-0.518592 l -0.143597,-4.001148 c -0.0069,-0.194087 -0.164786,-0.39877 -0.350638,-0.454913 l -3.780103,-0.904422 c -0.191148,-0.03461 -0.422667,0.07698 -0.514591,0.248116 l -1.877102,3.494088 c -0.09192,0.171137 -0.247412,0.309554 -0.345572,0.307672 h -0.08957 c -0.544724,0 -1.261405,0.05405 -1.261405,0.05405 -0.193619,0.01457 -0.442792,-0.103936 -0.553554,-0.263535 L 44.19768,28.609074 C 44.086918,28.44959 43.843162,28.361547 43.656017,28.413336 l -3.610618,1.217978 c -0.180198,0.0725 -0.315203,0.29025 -0.300021,0.483869 l 0.307788,3.926761 c 0.01518,0.193619 -0.105928,0.438201 -0.269062,0.543546 l -1.147947,0.794838 c -0.155955,0.115699 -0.430318,0.149719 -0.609812,0.07545 L 34.30898,33.916711 c -0.1795,-0.07427 -0.432554,-0.01694 -0.562499,0.127353 l -2.316839,2.87298 c -0.11358,0.157479 -0.110519,0.412895 0.0069,0.567557 l 2.37051,3.122153 c 0.117466,0.154656 0.146773,0.425369 0.0652,0.601687 L 33.2276,42.751745 c -0.06815,0.18185 -0.280363,0.358872 -0.47151,0.393359 l -3.943827,0.712212 c -0.191147,0.03449 -0.372408,0.219635 -0.403015,0.411487 0,0 -0.385823,2.425238 -0.385823,3.872969 v 0.0078 c 1.15e-4,0.0086 0.149597,0.07003 0.331921,0.136656 l 3.680434,1.344241 c 0.182439,0.06662 0.35405,0.278481 0.381475,0.470691 l 0.344983,1.881103 c 0.04306,0.18938 -0.03802,0.452563 -0.180083,0.584981 l -2.914997,2.714783 c -0.142067,0.132417 -0.192799,0.385356 -0.112644,0.562262 l 1.589797,3.08237 c 0.09792,0.167725 0.333093,0.270124 0.522595,0.227517 l 3.839307,-0.862634 c 0.189502,-0.04263 0.449618,0.04166 0.578149,0.18726 l 1.415247,1.471627 c 0.140415,0.134179 0.216101,0.397829 0.168077,0.586031 l -0.977162,3.830958 c -0.04804,0.188202 0.04694,0.427252 0.211042,0.531181 l 2.997156,1.689021 c 0.17384,0.08663 0.42761,0.04439 0.564024,-0.09381 l 2.780114,-2.818252 c 0.136413,-0.138296 0.401479,-0.210094 0.588976,-0.15972 l 1.976799,0.439385 c 0.191148,0.03413 0.397829,0.212803 0.459152,0.397124 l 1.24046,3.725133 c 0.06132,0.184206 0.270361,0.339457 0.464569,0.344984 0,0 0.104045,0.003 0.334034,0.003 1.192437,0 3.14628,-0.25541 3.14628,-0.25541 0.192563,-0.0252 0.382884,-0.20127 0.422789,-0.391361 l 0.821084,-3.902277 c 0.04002,-0.19009 0.2234,-0.395952 0.4076,-0.457506 l 1.739158,-0.659366 c 0.178674,-0.07627 0.448446,-0.03893 0.599689,0.08286 l 3.050828,2.457728 c 0.151249,0.121821 0.406422,0.132296 0.567084,0.0232 L 61.925281,63.1515 c 0.148304,-0.12547 0.21304,-0.376526 0.143949,-0.558024 L 60.641036,58.84268 c -0.06909,-0.181492 -0.02708,-0.454677 0.09334,-0.606988 l 0.945498,-1.28883 c 0.109225,-0.160547 0.356516,-0.275068 0.549667,-0.254238 l 3.903333,0.419023 c 0.193152,0.02071 0.413959,-0.10829 0.490816,-0.286606 l 1.278597,-3.496443 c 0.05672,-0.185737 -0.0246,-0.432086 -0.180909,-0.547311 L 64.481995,50.390686 C 64.325688,50.27534 64.212928,50.022869 64.231407,49.829487 Z m -16.060381,11.5384 c -6.528318,0 -11.820773,-5.292213 -11.820773,-11.820767 0,-6.52844 5.292218,-11.820773 11.820773,-11.820773 6.528555,0 11.820773,5.292218 11.820773,11.820773 0,6.528554 -5.292218,11.820767 -11.820773,11.820767 z"
     fill="#1E1B1B"
     id="path2430"
     style="fill:#ffffff;stroke-width:0.117702" />
</svg>
