<?xml version="1.0" encoding="UTF-8" standalone="no"?>
<svg
   viewBox="0 0 95 95"
   version="1.1"
   id="svg257"
   sodipodi:docname="music.svg"
   inkscape:version="1.2.2 (732a01da63, 2022-12-09, custom)"
   xmlns:inkscape="http://www.inkscape.org/namespaces/inkscape"
   xmlns:sodipodi="http://sodipodi.sourceforge.net/DTD/sodipodi-0.dtd"
   xmlns:xlink="http://www.w3.org/1999/xlink"
   xmlns="http://www.w3.org/2000/svg"
   xmlns:svg="http://www.w3.org/2000/svg">
  <sodipodi:namedview
     id="namedview245"
     pagecolor="#505050"
     bordercolor="#ffffff"
     borderopacity="1"
     inkscape:showpageshadow="0"
     inkscape:pageopacity="0"
     inkscape:pagecheckerboard="1"
     inkscape:deskcolor="#505050"
     showgrid="false"
     inkscape:zoom="8.9157895"
     inkscape:cx="47.724321"
     inkscape:cy="47.724321"
     inkscape:window-width="1873"
     inkscape:window-height="1025"
     inkscape:window-x="47"
     inkscape:window-y="27"
     inkscape:window-maximized="1"
     inkscape:current-layer="svg257" />
  <defs
     id="defs147">
    <linearGradient
       id="d">
      <stop
         stop-color="#fff"
         offset="0"
         id="stop135" />
      <stop
         stop-color="#fff"
         stop-opacity="0"
         offset="1"
         id="stop137" />
    </linearGradient>
    <linearGradient
       id="c"
       x2="0"
       y1="-26"
       y2="1.4211e-14"
       gradientUnits="userSpaceOnUse"
       xlink:href="#d" />
    <radialGradient
       id="b"
       cx="259"
       cy="484.36"
       r="41"
       gradientTransform="matrix(1.173 .33258 -.29937 1.0559 100.19 -113.22)"
       gradientUnits="userSpaceOnUse">
      <stop
         stop-color="#fff"
         stop-opacity="0"
         offset="0"
         id="stop141" />
      <stop
         stop-opacity=".33577"
         offset="1"
         id="stop143" />
    </radialGradient>
    <radialGradient
       id="a"
       cx="259.85"
       cy="485.57"
       r="13.5"
       gradientTransform="matrix(-.1624 .99376 -1.0061 -.044927 795.22 250.45)"
       gradientUnits="userSpaceOnUse"
       xlink:href="#d" />
  </defs>
  <path
     transform="translate(-201.5 -450.04)"
     d="m295 500.36a41 41 0 1 1 -82 0 41 41 0 1 1 82 0z"
     fill-opacity=".37849"
     id="path149" />
  <path
     transform="translate(-204.5 -452.04)"
     d="m295 500.36a41 41 0 1 1 -82 0 41 41 0 1 1 82 0z"
     fill-opacity=".37849"
     id="path151" />
  <path
     transform="translate(-206.5 -453.41)"
     d="m295 500.36a41 41 0 1 1 -82 0 41 41 0 1 1 82 0z"
     fill="#0000FF"
     id="path153" />
  <path
     transform="translate(-206.5 -453.41)"
     d="m295 500.36a41 41 0 1 1 -82 0 41 41 0 1 1 82 0z"
     fill="url(#b)"
     id="path155" />
  <path
     transform="matrix(-.04257 -1.133 1.9823 -.08904 -905.12 418.49)"
     d="m278 486.86a13.5 13.5 0 1 1 -27 0 13.5 13.5 0 1 1 27 0z"
     fill="url(#a)"
     opacity=".5"
     id="path157" />
  <path
     transform="matrix(1.1482 0 0 1.5 60.13 47.957)"
     d="m16-13a27 13 0 1 1 -54 0 27 13 0 1 1 54 0z"
     fill="url(#c)"
     opacity=".81102"
     id="path159" />
  <g
     transform="matrix(0.4736446,0,0,0.43058747,-137.97274,-182.80544)"
     id="g27"
     style="fill:#ffffff">
    <path
       d="m 374.53,575.26 c -5.5878,-5.0203 -2.5308,-13.198 6.6932,-17.903 3.0769,-1.5697 5.3464,-2.2491 9.4058,-2.129 2.4622,0.0631 5.2939,1.4824 5.2939,1.4824 0,-18.055 -0.0682,-52.28 -0.0682,-69.151 1.0003,0.006 1.6402,-0.006 3.0409,-0.006 0,0.99254 -0.0134,1.7062 -0.0134,2.586 0,0.85738 0.0603,1.4141 0.1432,1.9529 0.96866,6.2992 2.3792,8.7789 9.422,16.564 8.9072,9.8456 11.494,15.776 11.441,23.652 -0.0492,7.3881 -6.548,23.212 -8.0256,22.556 2.0546,-5.536 4.8253,-11.508 5.5622,-16.506 0.90056,-6.1073 -1.5805,-14.727 -5.5733,-19.274 -3.2836,-3.7398 -10.847,-7.0847 -12.91,-7.0847 0,0 -0.0876,36.372 -0.0876,50.162 0,2.3747 -2.1513,6.4006 -3.3631,7.8481 -5.5263,6.6011 -16.134,9.5899 -20.962,5.2519 z"
       id="path25"
       style="fill:#ffffff" />
  </g>
</svg>
