<?xml version="1.0" encoding="UTF-8" standalone="no"?>
<svg
   viewBox="0 0 95 95"
   version="1.1"
   id="svg257"
   sodipodi:docname="search.svg"
   inkscape:version="1.2.2 (732a01da63, 2022-12-09, custom)"
   xmlns:inkscape="http://www.inkscape.org/namespaces/inkscape"
   xmlns:sodipodi="http://sodipodi.sourceforge.net/DTD/sodipodi-0.dtd"
   xmlns:xlink="http://www.w3.org/1999/xlink"
   xmlns="http://www.w3.org/2000/svg"
   xmlns:svg="http://www.w3.org/2000/svg">
  <sodipodi:namedview
     id="namedview2665"
     pagecolor="#505050"
     bordercolor="#ffffff"
     borderopacity="1"
     inkscape:showpageshadow="0"
     inkscape:pageopacity="0"
     inkscape:pagecheckerboard="1"
     inkscape:deskcolor="#505050"
     showgrid="false"
     inkscape:zoom="8.9157895"
     inkscape:cx="47.612161"
     inkscape:cy="47.612161"
     inkscape:window-width="1873"
     inkscape:window-height="1025"
     inkscape:window-x="47"
     inkscape:window-y="27"
     inkscape:window-maximized="1"
     inkscape:current-layer="svg257" />
  <defs
     id="defs147">
    <linearGradient
       id="d">
      <stop
         stop-color="#fff"
         offset="0"
         id="stop135" />
      <stop
         stop-color="#fff"
         stop-opacity="0"
         offset="1"
         id="stop137" />
    </linearGradient>
    <linearGradient
       id="c"
       x2="0"
       y1="-26"
       y2="1.4211e-14"
       gradientUnits="userSpaceOnUse"
       xlink:href="#d" />
    <radialGradient
       id="b"
       cx="259"
       cy="484.36"
       r="41"
       gradientTransform="matrix(1.173 .33258 -.29937 1.0559 100.19 -113.22)"
       gradientUnits="userSpaceOnUse">
      <stop
         stop-color="#fff"
         stop-opacity="0"
         offset="0"
         id="stop141" />
      <stop
         stop-opacity=".33577"
         offset="1"
         id="stop143" />
    </radialGradient>
    <radialGradient
       id="a"
       cx="259.85"
       cy="485.57"
       r="13.5"
       gradientTransform="matrix(-.1624 .99376 -1.0061 -.044927 795.22 250.45)"
       gradientUnits="userSpaceOnUse"
       xlink:href="#d" />
  </defs>
  <path
     transform="translate(-201.5 -450.04)"
     d="m295 500.36a41 41 0 1 1 -82 0 41 41 0 1 1 82 0z"
     fill-opacity=".37849"
     id="path149" />
  <path
     transform="translate(-204.5 -452.04)"
     d="m295 500.36a41 41 0 1 1 -82 0 41 41 0 1 1 82 0z"
     fill-opacity=".37849"
     id="path151" />
  <path
     transform="translate(-206.5 -453.41)"
     d="m295 500.36a41 41 0 1 1 -82 0 41 41 0 1 1 82 0z"
     fill="#FF0000"
     id="path153" />
  <path
     transform="translate(-206.5 -453.41)"
     d="m295 500.36a41 41 0 1 1 -82 0 41 41 0 1 1 82 0z"
     fill="url(#b)"
     id="path155" />
  <path
     transform="matrix(-.04257 -1.133 1.9823 -.08904 -905.12 418.49)"
     d="m278 486.86a13.5 13.5 0 1 1 -27 0 13.5 13.5 0 1 1 27 0z"
     fill="url(#a)"
     opacity=".5"
     id="path157" />
  <path
     transform="matrix(1.1482 0 0 1.5 60.13 47.957)"
     d="m16-13a27 13 0 1 1 -54 0 27 13 0 1 1 54 0z"
     fill="url(#c)"
     opacity=".81102"
     id="path159" />
  <g
     transform="matrix(0.05430591,0,0,0.05430591,27.179696,13.02591)"
     id="g2615"
     style="fill:#ffffff">
    <path
       d="m 87.776,340.14 a 299.7,299.7 0 0 0 0,423.83 299.7,299.7 0 0 0 370.47,42.01 l 246.39,246.39 95.361,-95.358 -246.39,-246.39 a 299.7,299.7 0 0 0 -42.01,-370.48 299.7,299.7 0 0 0 -423.83,0 z m 70.651,70.652 a 199.8,199.8 0 0 1 282.52,0 199.8,199.8 0 0 1 0,282.52 199.8,199.8 0 0 1 -282.52,0 199.8,199.8 0 0 1 0,-282.52 z"
       color="#000000"
       color-rendering="auto"
       fill="#404040"
       image-rendering="auto"
       shape-rendering="auto"
       solid-color="#000000"
       style="isolation:auto;mix-blend-mode:normal;fill:#ffffff"
       id="path2613" />
  </g>
</svg>
